<?xml version="1.0" encoding="UTF-8" standalone="no"?>
<svg width="249px" height="151px" viewBox="0 0 249 151" version="1.1" xmlns="http://www.w3.org/2000/svg" xmlns:xlink="http://www.w3.org/1999/xlink">
    <!-- Generator: Sketch 41.2 (35397) - http://www.bohemiancoding.com/sketch -->
    <title>owner</title>
    <desc>Created with Sketch.</desc>
    <defs></defs>
    <g id="Page-1" stroke="none" stroke-width="1" fill="none" fill-rule="evenodd">
        <g id="owner">
            <rect id="Rectangle-6" fill="#FBECCF" x="0" y="0" width="249" height="151"></rect>
            <path d="M66.5,93.65 C65.7,116.35 62.95,125.6 60.15,125.6 C57.3,125.6 55.5,120.95 55.5,116.1 C55.5,107.6 59.5,99.85 66.5,93.65 Z M78.25,83 C78.05,83 77.85,83.05 77.65,83.15 C74.8,84.4 72.1,85.85 69.65,87.5 C69.8,82.2 69.9,75.95 69.9,70.2 C69.9,70.05 69.9,69.95 69.85,69.85 L69.85,67.05 C69.85,66.25 69.15,65.55 68.35,65.55 C67.55,65.55 66.85,66.25 66.85,67.05 L66.85,74.45 C66.55,82.75 65.25,85.5 61.05,85.5 C60.2,85.5 58.35,82.65 57.55,77.7 C56.9,73.45 57.4,65.55 52.05,65.55 C46.9,65.55 46.45,72.9 45.4,77.3 C44.25,81.85 42.55,85.5 36,85.5 C35.2,85.5 34.5,86.2 34.5,87 C34.5,87.8 35.2,88.5 36,88.5 C44.35,88.5 47.1,83 48.3,78.05 C49.75,72.05 50.45,68.55 52.05,68.55 C53.55,68.55 53.65,71.85 54.6,78.15 C55.25,82.5 56.85,88.5 61.05,88.5 C63.6,88.5 65.4,87.75 66.7,86.4 C66.65,87.55 66.65,88.6 66.6,89.7 C57.95,96.4 52.5,105.7 52.5,116.1 C52.5,120.65 53.95,128.6 60.15,128.6 C67.55,128.6 68.9,113.4 69.55,91.2 C72.35,89.2 75.45,87.4 78.85,85.85 C79.4,85.6 79.75,85.05 79.75,84.5 C79.75,83.6 79,83 78.25,83 Z M101,72.85 C100.3,82.45 97.9,85.5 93.15,85.5 C89.6,85.5 87.85,81.65 87.85,77 C87.85,70.6 91,68.55 94.05,68.55 C96.5,68.55 99.15,70 100.5,72.35 C100.6,72.55 100.8,72.7 101,72.85 Z M101.15,67.05 L101.15,68.4 C99.2,66.6 96.6,65.55 94.05,65.55 C89.2,65.55 84.85,69.35 84.85,77 C84.85,77.45 84.85,77.9 84.9,78.35 C82.75,79.95 79.95,81.9 77.6,83.2 C77.1,83.45 76.8,83.95 76.8,84.5 C76.8,85.4 77.55,86 78.3,86 C78.55,86 78.8,85.95 79,85.8 C81.15,84.7 83.45,83.1 85.45,81.65 C86.4,85.25 88.7,88.5 93.15,88.5 C98.15,88.5 101.1,85.75 102.7,80.75 C104.15,85.3 107.3,88.5 114.3,88.5 C115.1,88.5 115.8,87.8 115.8,87 C115.8,86.2 115.1,85.5 114.3,85.5 C104.25,85.5 104.65,78.15 104.15,67 C104.1,66.2 103.4,65.55 102.65,65.55 C101.8,65.55 101.15,66.25 101.15,67.05 Z M138.05,43.05 C138.05,34.65 135.55,25.5 129.2,25.5 C121.45,25.5 120.65,37.7 120.65,46 C120.65,59.45 122.3,70.15 126.25,77.5 C122.85,82.6 118.8,85.5 114.3,85.5 C113.5,85.5 112.8,86.2 112.8,87 C112.8,87.8 113.5,88.5 114.3,88.5 C119.8,88.5 124.4,85.15 127.95,80.3 C131.6,85.6 136.9,88.5 143.5,88.5 C144.3,88.5 145,87.8 145,87 C145,86.2 144.3,85.5 143.5,85.5 C137.4,85.5 133,82.85 129.7,77.55 C135.1,68.45 138.05,55.25 138.05,43.05 Z M128.05,74.4 C125.1,67.75 123.65,58.15 123.65,46 C123.65,36.5 125.4,28.5 129.2,28.5 C132.05,28.5 135.05,34.2 135.05,43.05 C135.05,54 132.5,66 128.05,74.4 Z M167.25,43.05 C167.25,34.65 164.75,25.5 158.4,25.5 C150.65,25.5 149.85,37.7 149.85,46 C149.85,59.45 151.5,70.15 155.45,77.5 C152.05,82.6 148,85.5 143.5,85.5 C142.7,85.5 142,86.2 142,87 C142,87.8 142.7,88.5 143.5,88.5 C149,88.5 153.6,85.15 157.15,80.3 C160.8,85.6 166.1,88.5 172.7,88.5 C173.5,88.5 174.2,87.8 174.2,87 C174.2,86.2 173.5,85.5 172.7,85.5 C166.6,85.5 162.2,82.85 158.9,77.55 C164.3,68.45 167.25,55.25 167.25,43.05 Z M157.25,74.4 C154.3,67.75 152.85,58.15 152.85,46 C152.85,36.5 154.6,28.5 158.4,28.5 C161.25,28.5 164.25,34.2 164.25,43.05 C164.25,54 161.7,66 157.25,74.4 Z M197.6,72.8 C196.9,82.25 194.45,85.5 189.85,85.5 C186.3,85.5 184.55,81.65 184.55,77 C184.55,70.6 187.7,68.55 190.75,68.55 C193.2,68.55 195.85,70 197.2,72.35 C197.3,72.5 197.45,72.7 197.6,72.8 Z M212.5,87 C212.5,86.2 211.8,85.5 211,85.5 C201.55,85.5 201.3,80.65 200.8,67.5 L200.8,67.05 C200.8,66.25 200.1,65.55 199.3,65.55 C198.45,65.55 197.8,66.25 197.8,67.05 L197.8,68.35 C195.85,66.6 193.3,65.55 190.75,65.55 C185.9,65.55 181.55,69.35 181.55,77 C181.55,78.9 181.85,81.05 182.6,83.05 C179.85,84.6 175.35,85.5 172.7,85.5 C171.9,85.5 171.2,86.2 171.2,87 C171.2,87.8 171.9,88.5 172.7,88.5 C175.85,88.5 180.6,87.65 184.05,85.65 C185.3,87.35 187.2,88.5 189.85,88.5 C194.8,88.5 197.7,85.7 199.25,80.75 C200.75,85.65 203.9,88.5 211,88.5 C211.8,88.5 212.5,87.8 212.5,87 Z" id="yalla" fill="#112378" transform="translate(123.500000, 77.050000) rotate(-3.000000) translate(-123.500000, -77.050000) "></path>
            <rect id="Rectangle-17" fill="#112378" x="87" y="101" width="158" height="46"></rect>
            <path d="M108.03125,142.390625 C101.104132,142.390625 97.640625,137.47531 97.640625,127.644531 C97.640625,117.878857 101.117153,112.996094 108.070312,112.996094 C111.403662,112.996094 113.958975,114.268867 115.736328,116.814453 C117.513681,119.360039 118.402344,122.983049 118.402344,127.683594 C118.402344,132.384138 117.503915,136.010404 115.707031,138.5625 C113.910147,141.114596 111.351579,142.390625 108.03125,142.390625 Z M108.03125,139.207031 C110.283865,139.207031 111.93424,138.26303 112.982422,136.375 C114.030604,134.48697 114.554688,131.589863 114.554688,127.683594 C114.554688,123.738262 114.024094,120.8379 112.962891,118.982422 C111.901687,117.126944 110.270844,116.199219 108.070312,116.199219 C103.68227,116.199219 101.488281,120.027305 101.488281,127.683594 C101.488281,135.365924 103.669249,139.207031 108.03125,139.207031 Z M136.983073,122.3125 L140.440104,122.3125 L143.272135,132.488281 C144.06641,135.339858 144.535155,137.338536 144.678385,138.484375 C144.704427,137.794267 145.1276,133.76436 145.947917,126.394531 L147.315104,113.445312 L150.635417,113.445312 L146.983073,142 L143.272135,142 L139.990885,130.671875 C139.470049,128.874991 139.040366,127.039072 138.701823,125.164062 C138.285154,127.416678 137.861981,129.265618 137.432292,130.710938 L134.385417,142 L130.674479,142 L126.709635,113.445312 L130.029948,113.445312 L131.748698,126.394531 C132.048178,128.686209 132.308592,131.147122 132.529948,133.777344 C132.751303,136.407565 132.861979,137.97656 132.861979,138.484375 C133.174481,136.518219 133.630205,134.48699 134.229167,132.390625 L136.983073,122.3125 Z M178.669271,142 L174.470052,142 L163.141927,118.367188 L162.985677,118.367188 C163.220053,121.973976 163.337239,124.688793 163.337239,126.511719 L163.337239,142 L159.977864,142 L159.977864,113.445312 L164.138021,113.445312 L175.427083,136.960938 L175.544271,136.960938 C175.361978,133.015605 175.270833,130.385423 175.270833,129.070312 L175.270833,113.445312 L178.669271,113.445312 L178.669271,142 Z M208.695312,142 L192.25,142 L192.25,113.445312 L208.695312,113.445312 L208.695312,116.648438 L195.882812,116.648438 L195.882812,125.476562 L207.933593,125.476562 L207.933593,128.640625 L195.882812,128.640625 L195.882812,138.796875 L208.695312,138.796875 L208.695312,142 Z M225.967447,130.203125 L225.967447,142 L222.315104,142 L222.315104,113.445312 L229.28776,113.445312 C236.058627,113.445312 239.44401,116.147108 239.44401,121.550781 C239.44401,125.287779 237.562518,127.839837 233.799479,129.207031 L241.553385,142 L237.276041,142 L230.440104,130.203125 L225.967447,130.203125 Z M225.967447,127.117188 L229.170572,127.117188 C231.397146,127.117188 233.037755,126.687504 234.092447,125.828125 C235.14714,124.968746 235.674479,123.601572 235.674479,121.726562 C235.674479,119.890616 235.15365,118.569014 234.111979,117.761719 C233.070307,116.954423 231.390636,116.550781 229.072916,116.550781 L225.967447,116.550781 L225.967447,127.117188 Z" id="OWNER" fill="#FBECCF"></path>
        </g>
    </g>
</svg>