<?xml version="1.0" encoding="UTF-8" standalone="no"?>
<svg width="249px" height="151px" viewBox="0 0 249 151" version="1.1" xmlns="http://www.w3.org/2000/svg" xmlns:xlink="http://www.w3.org/1999/xlink">
    <!-- Generator: Sketch 41.2 (35397) - http://www.bohemiancoding.com/sketch -->
    <title>USER</title>
    <desc>Created with Sketch.</desc>
    <defs></defs>
    <g id="Page-1" stroke="none" stroke-width="1" fill="none" fill-rule="evenodd">
        <g id="USER">
            <rect id="Rectangle-6" fill="#112378" x="0" y="0" width="249" height="151"></rect>
            <path d="M66.5,93.65 C65.7,116.35 62.95,125.6 60.15,125.6 C57.3,125.6 55.5,120.95 55.5,116.1 C55.5,107.6 59.5,99.85 66.5,93.65 Z M78.25,83 C78.05,83 77.85,83.05 77.65,83.15 C74.8,84.4 72.1,85.85 69.65,87.5 C69.8,82.2 69.9,75.95 69.9,70.2 C69.9,70.05 69.9,69.95 69.85,69.85 L69.85,67.05 C69.85,66.25 69.15,65.55 68.35,65.55 C67.55,65.55 66.85,66.25 66.85,67.05 L66.85,74.45 C66.55,82.75 65.25,85.5 61.05,85.5 C60.2,85.5 58.35,82.65 57.55,77.7 C56.9,73.45 57.4,65.55 52.05,65.55 C46.9,65.55 46.45,72.9 45.4,77.3 C44.25,81.85 42.55,85.5 36,85.5 C35.2,85.5 34.5,86.2 34.5,87 C34.5,87.8 35.2,88.5 36,88.5 C44.35,88.5 47.1,83 48.3,78.05 C49.75,72.05 50.45,68.55 52.05,68.55 C53.55,68.55 53.65,71.85 54.6,78.15 C55.25,82.5 56.85,88.5 61.05,88.5 C63.6,88.5 65.4,87.75 66.7,86.4 C66.65,87.55 66.65,88.6 66.6,89.7 C57.95,96.4 52.5,105.7 52.5,116.1 C52.5,120.65 53.95,128.6 60.15,128.6 C67.55,128.6 68.9,113.4 69.55,91.2 C72.35,89.2 75.45,87.4 78.85,85.85 C79.4,85.6 79.75,85.05 79.75,84.5 C79.75,83.6 79,83 78.25,83 Z M101,72.85 C100.3,82.45 97.9,85.5 93.15,85.5 C89.6,85.5 87.85,81.65 87.85,77 C87.85,70.6 91,68.55 94.05,68.55 C96.5,68.55 99.15,70 100.5,72.35 C100.6,72.55 100.8,72.7 101,72.85 Z M101.15,67.05 L101.15,68.4 C99.2,66.6 96.6,65.55 94.05,65.55 C89.2,65.55 84.85,69.35 84.85,77 C84.85,77.45 84.85,77.9 84.9,78.35 C82.75,79.95 79.95,81.9 77.6,83.2 C77.1,83.45 76.8,83.95 76.8,84.5 C76.8,85.4 77.55,86 78.3,86 C78.55,86 78.8,85.95 79,85.8 C81.15,84.7 83.45,83.1 85.45,81.65 C86.4,85.25 88.7,88.5 93.15,88.5 C98.15,88.5 101.1,85.75 102.7,80.75 C104.15,85.3 107.3,88.5 114.3,88.5 C115.1,88.5 115.8,87.8 115.8,87 C115.8,86.2 115.1,85.5 114.3,85.5 C104.25,85.5 104.65,78.15 104.15,67 C104.1,66.2 103.4,65.55 102.65,65.55 C101.8,65.55 101.15,66.25 101.15,67.05 Z M138.05,43.05 C138.05,34.65 135.55,25.5 129.2,25.5 C121.45,25.5 120.65,37.7 120.65,46 C120.65,59.45 122.3,70.15 126.25,77.5 C122.85,82.6 118.8,85.5 114.3,85.5 C113.5,85.5 112.8,86.2 112.8,87 C112.8,87.8 113.5,88.5 114.3,88.5 C119.8,88.5 124.4,85.15 127.95,80.3 C131.6,85.6 136.9,88.5 143.5,88.5 C144.3,88.5 145,87.8 145,87 C145,86.2 144.3,85.5 143.5,85.5 C137.4,85.5 133,82.85 129.7,77.55 C135.1,68.45 138.05,55.25 138.05,43.05 Z M128.05,74.4 C125.1,67.75 123.65,58.15 123.65,46 C123.65,36.5 125.4,28.5 129.2,28.5 C132.05,28.5 135.05,34.2 135.05,43.05 C135.05,54 132.5,66 128.05,74.4 Z M167.25,43.05 C167.25,34.65 164.75,25.5 158.4,25.5 C150.65,25.5 149.85,37.7 149.85,46 C149.85,59.45 151.5,70.15 155.45,77.5 C152.05,82.6 148,85.5 143.5,85.5 C142.7,85.5 142,86.2 142,87 C142,87.8 142.7,88.5 143.5,88.5 C149,88.5 153.6,85.15 157.15,80.3 C160.8,85.6 166.1,88.5 172.7,88.5 C173.5,88.5 174.2,87.8 174.2,87 C174.2,86.2 173.5,85.5 172.7,85.5 C166.6,85.5 162.2,82.85 158.9,77.55 C164.3,68.45 167.25,55.25 167.25,43.05 Z M157.25,74.4 C154.3,67.75 152.85,58.15 152.85,46 C152.85,36.5 154.6,28.5 158.4,28.5 C161.25,28.5 164.25,34.2 164.25,43.05 C164.25,54 161.7,66 157.25,74.4 Z M197.6,72.8 C196.9,82.25 194.45,85.5 189.85,85.5 C186.3,85.5 184.55,81.65 184.55,77 C184.55,70.6 187.7,68.55 190.75,68.55 C193.2,68.55 195.85,70 197.2,72.35 C197.3,72.5 197.45,72.7 197.6,72.8 Z M212.5,87 C212.5,86.2 211.8,85.5 211,85.5 C201.55,85.5 201.3,80.65 200.8,67.5 L200.8,67.05 C200.8,66.25 200.1,65.55 199.3,65.55 C198.45,65.55 197.8,66.25 197.8,67.05 L197.8,68.35 C195.85,66.6 193.3,65.55 190.75,65.55 C185.9,65.55 181.55,69.35 181.55,77 C181.55,78.9 181.85,81.05 182.6,83.05 C179.85,84.6 175.35,85.5 172.7,85.5 C171.9,85.5 171.2,86.2 171.2,87 C171.2,87.8 171.9,88.5 172.7,88.5 C175.85,88.5 180.6,87.65 184.05,85.65 C185.3,87.35 187.2,88.5 189.85,88.5 C194.8,88.5 197.7,85.7 199.25,80.75 C200.75,85.65 203.9,88.5 211,88.5 C211.8,88.5 212.5,87.8 212.5,87 Z" id="yalla" fill="#FBECCF" transform="translate(123.500000, 77.050000) rotate(-3.000000) translate(-123.500000, -77.050000) "></path>
            <rect id="Rectangle-17" fill="#FBECCF" x="112" y="101" width="133" height="46"></rect>
            <path d="M145.880209,111.40625 L145.880209,129.921875 C145.880209,133.307309 145.059905,135.898429 143.419271,137.695312 C141.778638,139.492196 139.369808,140.390625 136.192709,140.390625 C129.903615,140.390625 126.759115,136.875035 126.759115,129.84375 L126.759115,111.445312 L130.391928,111.445312 L130.391928,129.648438 C130.391928,134.687525 132.390606,137.207031 136.388021,137.207031 C140.229187,137.207031 142.182292,134.674504 142.247396,129.609375 L142.247396,111.40625 L145.880209,111.40625 Z M157.742188,139.042969 L157.742188,135.566406 C160.489598,136.686204 163.184883,137.246094 165.828125,137.246094 C170.38544,137.246094 172.664063,135.683609 172.664063,132.558594 C172.664063,131.20442 172.205083,130.162764 171.28711,129.433594 C170.369137,128.704423 168.510431,127.838547 165.710938,126.835938 C163.002591,125.885412 161.059251,124.749356 159.88086,123.427734 C158.702469,122.106113 158.113282,120.390636 158.113282,118.28125 C158.113282,116.015614 158.949862,114.241543 160.623047,112.958984 C162.296233,111.676426 164.591132,111.035156 167.507813,111.035156 C170.489599,111.035156 173.197905,111.542964 175.632813,112.558594 L174.382813,115.761719 C171.86978,114.746089 169.526053,114.238281 167.351563,114.238281 C163.53644,114.238281 161.628907,115.598945 161.628907,118.320312 C161.628907,119.648444 162.055335,120.716142 162.908204,121.523438 C163.761072,122.330733 165.522123,123.19661 168.191407,124.121094 C171.394548,125.266933 173.533198,126.448562 174.607422,127.666016 C175.681646,128.88347 176.21875,130.449209 176.21875,132.363281 C176.21875,134.863294 175.317067,136.826165 173.513672,138.251953 C171.710278,139.677742 169.148455,140.390625 165.828125,140.390625 C162.377587,140.390625 159.682302,139.941411 157.742188,139.042969 Z M206.342448,140 L189.897136,140 L189.897136,111.445312 L206.342448,111.445312 L206.342448,114.648438 L193.529948,114.648438 L193.529948,123.476562 L205.580729,123.476562 L205.580729,126.640625 L193.529948,126.640625 L193.529948,136.796875 L206.342448,136.796875 L206.342448,140 Z M223.614583,128.203125 L223.614583,140 L219.96224,140 L219.96224,111.445312 L226.934896,111.445312 C233.705763,111.445312 237.091146,114.147108 237.091146,119.550781 C237.091146,123.287779 235.209654,125.839837 231.446615,127.207031 L239.200521,140 L234.923177,140 L228.08724,128.203125 L223.614583,128.203125 Z M223.614583,125.117188 L226.817708,125.117188 C229.044282,125.117188 230.684891,124.687504 231.739583,123.828125 C232.794276,122.968746 233.321615,121.601572 233.321615,119.726562 C233.321615,117.890616 232.800787,116.569014 231.759115,115.761719 C230.717443,114.954423 229.037772,114.550781 226.720052,114.550781 L223.614583,114.550781 L223.614583,125.117188 Z" fill="#112378"></path>
        </g>
    </g>
</svg>